<mxfile host="app.diagrams.net" modified="2021-02-08T05:36:25.748Z" agent="5.0 (Windows NT 6.1; WOW64) AppleWebKit/537.36 (KHTML, like Gecko) Chrome/78.0.3904.108 Safari/537.36" etag="Lod-yLnLGvkWkaBCG_el" version="14.2.9" type="github">
  <diagram name="Page-1" id="9f46799a-70d6-7492-0946-bef42562c5a5">
    <mxGraphModel dx="948" dy="501" grid="1" gridSize="10" guides="1" tooltips="1" connect="1" arrows="1" fold="1" page="1" pageScale="1" pageWidth="1100" pageHeight="850" background="#ffffff" math="0" shadow="0">
      <root>
        <mxCell id="0" />
        <mxCell id="1" parent="0" />
        <mxCell id="ns0ysuGmTws9no43gIbs-89" value="" style="shape=table;html=1;whiteSpace=wrap;startSize=0;container=1;collapsible=0;childLayout=tableLayout;" vertex="1" parent="1">
          <mxGeometry x="260" y="140" width="970" height="40" as="geometry" />
        </mxCell>
        <mxCell id="ns0ysuGmTws9no43gIbs-90" value="" style="shape=partialRectangle;html=1;whiteSpace=wrap;collapsible=0;dropTarget=0;pointerEvents=0;fillColor=none;top=0;left=0;bottom=0;right=0;points=[[0,0.5],[1,0.5]];portConstraint=eastwest;" vertex="1" parent="ns0ysuGmTws9no43gIbs-89">
          <mxGeometry width="970" height="40" as="geometry" />
        </mxCell>
        <mxCell id="ns0ysuGmTws9no43gIbs-91" value="" style="shape=partialRectangle;html=1;whiteSpace=wrap;connectable=0;overflow=hidden;fillColor=#dae8fc;top=0;left=0;bottom=0;right=0;strokeColor=#6c8ebf;" vertex="1" parent="ns0ysuGmTws9no43gIbs-90">
          <mxGeometry width="20" height="40" as="geometry" />
        </mxCell>
        <mxCell id="ns0ysuGmTws9no43gIbs-92" value="" style="shape=partialRectangle;html=1;whiteSpace=wrap;connectable=0;overflow=hidden;fillColor=#dae8fc;top=0;left=0;bottom=0;right=0;strokeColor=#6c8ebf;" vertex="1" parent="ns0ysuGmTws9no43gIbs-90">
          <mxGeometry x="20" width="20" height="40" as="geometry" />
        </mxCell>
        <mxCell id="ns0ysuGmTws9no43gIbs-93" value="" style="shape=partialRectangle;html=1;whiteSpace=wrap;connectable=0;overflow=hidden;fillColor=#dae8fc;top=0;left=0;bottom=0;right=0;strokeColor=#6c8ebf;" vertex="1" parent="ns0ysuGmTws9no43gIbs-90">
          <mxGeometry x="40" width="20" height="40" as="geometry" />
        </mxCell>
        <mxCell id="ns0ysuGmTws9no43gIbs-94" value="" style="shape=partialRectangle;html=1;whiteSpace=wrap;connectable=0;overflow=hidden;fillColor=#dae8fc;top=0;left=0;bottom=0;right=0;strokeColor=#6c8ebf;" vertex="1" parent="ns0ysuGmTws9no43gIbs-90">
          <mxGeometry x="60" width="20" height="40" as="geometry" />
        </mxCell>
        <mxCell id="ns0ysuGmTws9no43gIbs-97" style="shape=partialRectangle;html=1;whiteSpace=wrap;connectable=0;overflow=hidden;fillColor=#d5e8d4;top=0;left=0;bottom=0;right=0;strokeColor=#82b366;" vertex="1" parent="ns0ysuGmTws9no43gIbs-90">
          <mxGeometry x="80" width="20" height="40" as="geometry" />
        </mxCell>
        <mxCell id="ns0ysuGmTws9no43gIbs-127" style="shape=partialRectangle;html=1;whiteSpace=wrap;connectable=0;overflow=hidden;fillColor=#d5e8d4;top=0;left=0;bottom=0;right=0;strokeColor=#82b366;" vertex="1" parent="ns0ysuGmTws9no43gIbs-90">
          <mxGeometry x="100" width="20" height="40" as="geometry" />
        </mxCell>
        <mxCell id="ns0ysuGmTws9no43gIbs-126" style="shape=partialRectangle;html=1;whiteSpace=wrap;connectable=0;overflow=hidden;fillColor=#d5e8d4;top=0;left=0;bottom=0;right=0;strokeColor=#82b366;" vertex="1" parent="ns0ysuGmTws9no43gIbs-90">
          <mxGeometry x="120" width="20" height="40" as="geometry" />
        </mxCell>
        <mxCell id="ns0ysuGmTws9no43gIbs-125" style="shape=partialRectangle;html=1;whiteSpace=wrap;connectable=0;overflow=hidden;fillColor=#d5e8d4;top=0;left=0;bottom=0;right=0;strokeColor=#82b366;" vertex="1" parent="ns0ysuGmTws9no43gIbs-90">
          <mxGeometry x="140" width="20" height="40" as="geometry" />
        </mxCell>
        <mxCell id="ns0ysuGmTws9no43gIbs-128" value="......................" style="shape=partialRectangle;html=1;whiteSpace=wrap;connectable=0;overflow=hidden;top=0;left=0;bottom=0;right=0;" vertex="1" parent="ns0ysuGmTws9no43gIbs-90">
          <mxGeometry x="160" width="120" height="40" as="geometry" />
        </mxCell>
        <mxCell id="ns0ysuGmTws9no43gIbs-95" value="head" style="shape=partialRectangle;html=1;whiteSpace=wrap;connectable=0;overflow=hidden;fillColor=#e1d5e7;top=0;left=0;bottom=0;right=0;strokeColor=#9673a6;" vertex="1" parent="ns0ysuGmTws9no43gIbs-90">
          <mxGeometry x="280" width="40" height="40" as="geometry" />
        </mxCell>
        <mxCell id="ns0ysuGmTws9no43gIbs-96" value="item_size" style="shape=partialRectangle;html=1;whiteSpace=wrap;connectable=0;overflow=hidden;fillColor=#e1d5e7;top=0;left=0;bottom=0;right=0;strokeColor=#9673a6;" vertex="1" parent="ns0ysuGmTws9no43gIbs-90">
          <mxGeometry x="320" width="70" height="40" as="geometry" />
        </mxCell>
        <mxCell id="ns0ysuGmTws9no43gIbs-148" value="patch" style="shape=partialRectangle;html=1;whiteSpace=wrap;connectable=0;overflow=hidden;fillColor=#e1d5e7;top=0;left=0;bottom=0;right=0;strokeColor=#9673a6;" vertex="1" parent="ns0ysuGmTws9no43gIbs-90">
          <mxGeometry x="390" width="40" height="40" as="geometry" />
        </mxCell>
        <mxCell id="ns0ysuGmTws9no43gIbs-159" style="shape=partialRectangle;html=1;whiteSpace=wrap;connectable=0;overflow=hidden;fillColor=#e1d5e7;top=0;left=0;bottom=0;right=0;strokeColor=#9673a6;" vertex="1" parent="ns0ysuGmTws9no43gIbs-90">
          <mxGeometry x="430" width="40" height="40" as="geometry" />
        </mxCell>
        <mxCell id="ns0ysuGmTws9no43gIbs-158" style="shape=partialRectangle;html=1;whiteSpace=wrap;connectable=0;overflow=hidden;fillColor=#e1d5e7;top=0;left=0;bottom=0;right=0;strokeColor=#9673a6;" vertex="1" parent="ns0ysuGmTws9no43gIbs-90">
          <mxGeometry x="470" width="40" height="40" as="geometry" />
        </mxCell>
        <mxCell id="ns0ysuGmTws9no43gIbs-157" style="shape=partialRectangle;html=1;whiteSpace=wrap;connectable=0;overflow=hidden;fillColor=#e1d5e7;top=0;left=0;bottom=0;right=0;strokeColor=#9673a6;" vertex="1" parent="ns0ysuGmTws9no43gIbs-90">
          <mxGeometry x="510" width="40" height="40" as="geometry" />
        </mxCell>
        <mxCell id="ns0ysuGmTws9no43gIbs-156" style="shape=partialRectangle;html=1;whiteSpace=wrap;connectable=0;overflow=hidden;fillColor=#e1d5e7;top=0;left=0;bottom=0;right=0;strokeColor=#9673a6;" vertex="1" parent="ns0ysuGmTws9no43gIbs-90">
          <mxGeometry x="550" width="40" height="40" as="geometry" />
        </mxCell>
        <mxCell id="ns0ysuGmTws9no43gIbs-146" style="shape=partialRectangle;html=1;whiteSpace=wrap;connectable=0;overflow=hidden;fillColor=none;top=0;left=0;bottom=0;right=0;" vertex="1" parent="ns0ysuGmTws9no43gIbs-90">
          <mxGeometry x="590" width="320" height="40" as="geometry" />
        </mxCell>
        <mxCell id="ns0ysuGmTws9no43gIbs-147" value="....." style="shape=partialRectangle;html=1;whiteSpace=wrap;connectable=0;overflow=hidden;fillColor=none;top=0;left=0;bottom=0;right=0;" vertex="1" parent="ns0ysuGmTws9no43gIbs-90">
          <mxGeometry x="910" width="60" height="40" as="geometry" />
        </mxCell>
        <mxCell id="ns0ysuGmTws9no43gIbs-119" value="used_info" style="text;html=1;align=center;verticalAlign=middle;resizable=0;points=[];autosize=1;" vertex="1" parent="1">
          <mxGeometry x="230" y="120" width="70" height="20" as="geometry" />
        </mxCell>
        <mxCell id="ns0ysuGmTws9no43gIbs-129" value="info_size=多少个字节" style="text;html=1;align=center;verticalAlign=middle;resizable=0;points=[];autosize=1;" vertex="1" parent="1">
          <mxGeometry x="280" y="100" width="130" height="20" as="geometry" />
        </mxCell>
        <mxCell id="ns0ysuGmTws9no43gIbs-130" value="data" style="text;html=1;align=center;verticalAlign=middle;resizable=0;points=[];autosize=1;" vertex="1" parent="1">
          <mxGeometry x="520" y="110" width="40" height="20" as="geometry" />
        </mxCell>
        <mxCell id="ns0ysuGmTws9no43gIbs-131" value="tail" style="text;html=1;align=center;verticalAlign=middle;resizable=0;points=[];autosize=1;" vertex="1" parent="1">
          <mxGeometry x="1060" y="110" width="30" height="20" as="geometry" />
        </mxCell>
        <mxCell id="ns0ysuGmTws9no43gIbs-132" value="pred_index=指定第几个uint32_t&lt;br&gt;pred_index指向的32位都为1的话，则将指向下一个32位整数" style="text;html=1;align=center;verticalAlign=middle;resizable=0;points=[];autosize=1;" vertex="1" parent="1">
          <mxGeometry x="205" y="205" width="340" height="30" as="geometry" />
        </mxCell>
        <mxCell id="ns0ysuGmTws9no43gIbs-149" value="" style="shape=crossbar;whiteSpace=wrap;html=1;rounded=1;shadow=0;glass=0;sketch=0;fillColor=none;gradientColor=none;strokeColor=#FF8000;" vertex="1" parent="1">
          <mxGeometry x="540" y="180" width="150" height="20" as="geometry" />
        </mxCell>
        <mxCell id="ns0ysuGmTws9no43gIbs-150" value="item_space" style="text;html=1;align=center;verticalAlign=middle;resizable=0;points=[];autosize=1;" vertex="1" parent="1">
          <mxGeometry x="570" y="190" width="80" height="20" as="geometry" />
        </mxCell>
        <mxCell id="ns0ysuGmTws9no43gIbs-151" value="" style="shape=crossbar;whiteSpace=wrap;html=1;rounded=1;shadow=0;glass=0;sketch=0;strokeColor=#FF8000;fillColor=none;gradientColor=none;" vertex="1" parent="1">
          <mxGeometry x="540" y="120" width="530" height="20" as="geometry" />
        </mxCell>
        <mxCell id="ns0ysuGmTws9no43gIbs-152" value="Text" style="text;html=1;align=center;verticalAlign=middle;resizable=0;points=[];autosize=1;" vertex="1" parent="1">
          <mxGeometry x="770" y="100" width="40" height="20" as="geometry" />
        </mxCell>
        <mxCell id="ns0ysuGmTws9no43gIbs-155" value="tb_static_fixed_pool_t" style="text;html=1;align=center;verticalAlign=middle;resizable=0;points=[];autosize=1;" vertex="1" parent="1">
          <mxGeometry x="135" y="150" width="130" height="20" as="geometry" />
        </mxCell>
        <mxCell id="ns0ysuGmTws9no43gIbs-161" value="index = pred_index *32 + used_info[pred_index]其中第一个为0的" style="text;html=1;align=center;verticalAlign=middle;resizable=0;points=[];autosize=1;" vertex="1" parent="1">
          <mxGeometry x="570" y="240" width="360" height="20" as="geometry" />
        </mxCell>
        <mxCell id="ns0ysuGmTws9no43gIbs-162" value="" style="endArrow=none;html=1;" edge="1" parent="1">
          <mxGeometry width="50" height="50" relative="1" as="geometry">
            <mxPoint x="550" y="140" as="sourcePoint" />
            <mxPoint x="600" y="90" as="targetPoint" />
          </mxGeometry>
        </mxCell>
        <mxCell id="ns0ysuGmTws9no43gIbs-163" value="&lt;div&gt;if (pool-&amp;gt;for_small)&amp;nbsp;&lt;/div&gt;&lt;div&gt;&amp;nbsp; &amp;nbsp; &amp;nbsp; &amp;nbsp; &amp;nbsp; &amp;nbsp; &amp;nbsp; &amp;nbsp; &amp;nbsp; &amp;nbsp; &amp;nbsp; &amp;nbsp; &amp;nbsp; &amp;nbsp; &amp;nbsp; &amp;nbsp; &amp;nbsp; &amp;nbsp; data_head)-&amp;gt;size = pool-&amp;gt;item_size;&lt;/div&gt;" style="text;html=1;align=center;verticalAlign=middle;resizable=0;points=[];autosize=1;" vertex="1" parent="1">
          <mxGeometry x="400" y="50" width="330" height="30" as="geometry" />
        </mxCell>
      </root>
    </mxGraphModel>
  </diagram>
</mxfile>
